<mxfile host="app.diagrams.net" modified="2022-11-02T15:55:41.161Z" agent="5.0 (Macintosh; Intel Mac OS X 10_15_7) AppleWebKit/537.36 (KHTML, like Gecko) Chrome/106.0.0.0 Safari/537.36" etag="p5IWdNUxwVAIjPYHBeyZ" version="20.5.1" type="github">
  <diagram id="C5RBs43oDa-KdzZeNtuy" name="Page-1">
    <mxGraphModel dx="946" dy="589" grid="1" gridSize="10" guides="1" tooltips="1" connect="1" arrows="1" fold="1" page="1" pageScale="1" pageWidth="827" pageHeight="1169" math="0" shadow="0">
      <root>
        <mxCell id="WIyWlLk6GJQsqaUBKTNV-0" />
        <mxCell id="WIyWlLk6GJQsqaUBKTNV-1" parent="WIyWlLk6GJQsqaUBKTNV-0" />
        <mxCell id="pLFm1Ss5g1nG4RSj5yaK-2" value="Number" style="swimlane;fontStyle=2;align=center;verticalAlign=top;childLayout=stackLayout;horizontal=1;startSize=30;horizontalStack=0;resizeParent=1;resizeLast=0;collapsible=1;marginBottom=0;rounded=0;shadow=0;strokeWidth=1;" parent="WIyWlLk6GJQsqaUBKTNV-1" vertex="1">
          <mxGeometry x="320" y="300" width="70" height="48" as="geometry">
            <mxRectangle x="320" y="300" width="70" height="26" as="alternateBounds" />
          </mxGeometry>
        </mxCell>
        <mxCell id="pLFm1Ss5g1nG4RSj5yaK-6" value="Byte" style="swimlane;fontStyle=2;align=center;verticalAlign=top;childLayout=stackLayout;horizontal=1;startSize=26;horizontalStack=0;resizeParent=1;resizeLast=0;collapsible=1;marginBottom=0;rounded=0;shadow=0;strokeWidth=1;" parent="WIyWlLk6GJQsqaUBKTNV-1" vertex="1" collapsed="1">
          <mxGeometry x="69" y="430" width="67" height="26" as="geometry">
            <mxRectangle x="280" y="370" width="70" height="48" as="alternateBounds" />
          </mxGeometry>
        </mxCell>
        <mxCell id="pLFm1Ss5g1nG4RSj5yaK-8" value="" style="endArrow=block;endSize=10;endFill=0;shadow=0;strokeWidth=1;rounded=0;edgeStyle=elbowEdgeStyle;elbow=vertical;exitX=0.5;exitY=0;exitDx=0;exitDy=0;entryX=0.5;entryY=1;entryDx=0;entryDy=0;" parent="WIyWlLk6GJQsqaUBKTNV-1" source="pLFm1Ss5g1nG4RSj5yaK-6" target="pLFm1Ss5g1nG4RSj5yaK-2" edge="1">
          <mxGeometry width="160" relative="1" as="geometry">
            <mxPoint x="215" y="310" as="sourcePoint" />
            <mxPoint x="365" y="246" as="targetPoint" />
          </mxGeometry>
        </mxCell>
        <mxCell id="pLFm1Ss5g1nG4RSj5yaK-9" value="Short" style="swimlane;fontStyle=2;align=center;verticalAlign=top;childLayout=stackLayout;horizontal=1;startSize=0;horizontalStack=0;resizeParent=1;resizeLast=0;collapsible=1;marginBottom=0;rounded=0;shadow=0;strokeWidth=1;" parent="WIyWlLk6GJQsqaUBKTNV-1" vertex="1" collapsed="1">
          <mxGeometry x="167" y="430" width="67" height="26" as="geometry">
            <mxRectangle x="280" y="370" width="70" height="48" as="alternateBounds" />
          </mxGeometry>
        </mxCell>
        <mxCell id="pLFm1Ss5g1nG4RSj5yaK-10" value="" style="endArrow=block;endSize=10;endFill=0;shadow=0;strokeWidth=1;rounded=0;edgeStyle=elbowEdgeStyle;elbow=vertical;exitX=0.5;exitY=0;exitDx=0;exitDy=0;entryX=0.5;entryY=1;entryDx=0;entryDy=0;" parent="WIyWlLk6GJQsqaUBKTNV-1" source="pLFm1Ss5g1nG4RSj5yaK-9" target="pLFm1Ss5g1nG4RSj5yaK-2" edge="1">
          <mxGeometry width="160" relative="1" as="geometry">
            <mxPoint x="227" y="440" as="sourcePoint" />
            <mxPoint x="360" y="320" as="targetPoint" />
          </mxGeometry>
        </mxCell>
        <mxCell id="pLFm1Ss5g1nG4RSj5yaK-11" value="Integer" style="swimlane;fontStyle=2;align=center;verticalAlign=top;childLayout=stackLayout;horizontal=1;startSize=0;horizontalStack=0;resizeParent=1;resizeLast=0;collapsible=1;marginBottom=0;rounded=0;shadow=0;strokeWidth=1;" parent="WIyWlLk6GJQsqaUBKTNV-1" vertex="1" collapsed="1">
          <mxGeometry x="277" y="430" width="67" height="26" as="geometry">
            <mxRectangle x="280" y="370" width="70" height="48" as="alternateBounds" />
          </mxGeometry>
        </mxCell>
        <mxCell id="pLFm1Ss5g1nG4RSj5yaK-12" value="Long" style="swimlane;fontStyle=2;align=center;verticalAlign=top;childLayout=stackLayout;horizontal=1;startSize=0;horizontalStack=0;resizeParent=1;resizeLast=0;collapsible=1;marginBottom=0;rounded=0;shadow=0;strokeWidth=1;" parent="WIyWlLk6GJQsqaUBKTNV-1" vertex="1" collapsed="1">
          <mxGeometry x="377" y="430" width="67" height="26" as="geometry">
            <mxRectangle x="280" y="370" width="70" height="48" as="alternateBounds" />
          </mxGeometry>
        </mxCell>
        <mxCell id="pLFm1Ss5g1nG4RSj5yaK-13" value="Float" style="swimlane;fontStyle=2;align=center;verticalAlign=top;childLayout=stackLayout;horizontal=1;startSize=0;horizontalStack=0;resizeParent=1;resizeLast=0;collapsible=1;marginBottom=0;rounded=0;shadow=0;strokeWidth=1;" parent="WIyWlLk6GJQsqaUBKTNV-1" vertex="1" collapsed="1">
          <mxGeometry x="487" y="430" width="67" height="26" as="geometry">
            <mxRectangle x="280" y="370" width="70" height="48" as="alternateBounds" />
          </mxGeometry>
        </mxCell>
        <mxCell id="pLFm1Ss5g1nG4RSj5yaK-14" value="Double" style="swimlane;fontStyle=2;align=center;verticalAlign=top;childLayout=stackLayout;horizontal=1;startSize=0;horizontalStack=0;resizeParent=1;resizeLast=0;collapsible=1;marginBottom=0;rounded=0;shadow=0;strokeWidth=1;" parent="WIyWlLk6GJQsqaUBKTNV-1" vertex="1" collapsed="1">
          <mxGeometry x="587" y="430" width="67" height="26" as="geometry">
            <mxRectangle x="280" y="370" width="70" height="48" as="alternateBounds" />
          </mxGeometry>
        </mxCell>
        <mxCell id="pLFm1Ss5g1nG4RSj5yaK-15" value="" style="endArrow=block;endSize=10;endFill=0;shadow=0;strokeWidth=1;rounded=0;edgeStyle=elbowEdgeStyle;elbow=vertical;entryX=0.5;entryY=1;entryDx=0;entryDy=0;exitX=0.5;exitY=0;exitDx=0;exitDy=0;" parent="WIyWlLk6GJQsqaUBKTNV-1" source="pLFm1Ss5g1nG4RSj5yaK-11" target="pLFm1Ss5g1nG4RSj5yaK-2" edge="1">
          <mxGeometry width="160" relative="1" as="geometry">
            <mxPoint x="310" y="420" as="sourcePoint" />
            <mxPoint x="365" y="336" as="targetPoint" />
          </mxGeometry>
        </mxCell>
        <mxCell id="pLFm1Ss5g1nG4RSj5yaK-16" value="" style="endArrow=block;endSize=10;endFill=0;shadow=0;strokeWidth=1;rounded=0;edgeStyle=elbowEdgeStyle;elbow=vertical;exitX=0.5;exitY=0;exitDx=0;exitDy=0;entryX=0.5;entryY=1;entryDx=0;entryDy=0;" parent="WIyWlLk6GJQsqaUBKTNV-1" source="pLFm1Ss5g1nG4RSj5yaK-12" target="pLFm1Ss5g1nG4RSj5yaK-2" edge="1">
          <mxGeometry width="160" relative="1" as="geometry">
            <mxPoint x="320.5" y="440" as="sourcePoint" />
            <mxPoint x="360" y="330" as="targetPoint" />
          </mxGeometry>
        </mxCell>
        <mxCell id="pLFm1Ss5g1nG4RSj5yaK-17" value="" style="endArrow=block;endSize=10;endFill=0;shadow=0;strokeWidth=1;rounded=0;edgeStyle=elbowEdgeStyle;elbow=vertical;exitX=0.5;exitY=0;exitDx=0;exitDy=0;entryX=0.5;entryY=1;entryDx=0;entryDy=0;" parent="WIyWlLk6GJQsqaUBKTNV-1" source="pLFm1Ss5g1nG4RSj5yaK-13" target="pLFm1Ss5g1nG4RSj5yaK-2" edge="1">
          <mxGeometry width="160" relative="1" as="geometry">
            <mxPoint x="420.5" y="440" as="sourcePoint" />
            <mxPoint x="365" y="336" as="targetPoint" />
          </mxGeometry>
        </mxCell>
        <mxCell id="pLFm1Ss5g1nG4RSj5yaK-18" value="" style="endArrow=block;endSize=10;endFill=0;shadow=0;strokeWidth=1;rounded=0;edgeStyle=elbowEdgeStyle;elbow=vertical;exitX=0.5;exitY=0;exitDx=0;exitDy=0;entryX=0.5;entryY=1;entryDx=0;entryDy=0;" parent="WIyWlLk6GJQsqaUBKTNV-1" source="pLFm1Ss5g1nG4RSj5yaK-14" target="pLFm1Ss5g1nG4RSj5yaK-2" edge="1">
          <mxGeometry width="160" relative="1" as="geometry">
            <mxPoint x="530.5" y="440" as="sourcePoint" />
            <mxPoint x="360" y="330" as="targetPoint" />
          </mxGeometry>
        </mxCell>
      </root>
    </mxGraphModel>
  </diagram>
</mxfile>
